#!OML:ASF H:\ManfredObstacles\Project 1\Capture day 1\Session 1\Male.ASF
:FULLY-SPECIFIED
:DEGREES
482
root -5.68502 16.842 -12.0289 -161.875 -71.4621 -187.316
lowerback -11.1508 -0.100364 -2.72035
upperback 1.65052 0.228346 0.194429
thorax 8.01616 -0.0196992 1.78219
lowerneck -3.36958 9.04846 -4.90537
upperneck -6.16567 12.1667 1.85035
head -1.81332 6.114 1.28141
rclavicle -1.16786e-014 5.56597e-015
rhumerus -32.6821 -25.161 -75.8162
rradius 23.6584
rwrist 35.2079
rhand 0.135699 -6.29247
rfingers 7.12502
rthumb 25.7203 -34.5745
lclavicle -1.16786e-014 5.56597e-015
lhumerus -23.6382 8.79363 88.874
lradius 16.9527
lwrist -34.5219
lhand -12.2468 7.21634
lfingers 7.12502
lthumb 13.8192 36.7373
rfemur -23.3318 -11.2529 21.6893
rtibia 23.8927
rfoot -19.2414 -2.17054
rtoes 22.2539
lfemur 1.29307 -10.1875 -9.4912
ltibia 14.87
lfoot 31.5906 -11.3166
ltoes 16.7271
483
root -5.68545 16.8413 -12.0222 -162.015 -71.9406 -187.042
lowerback -11.2385 -0.0610624 -2.48308
upperback 1.6577 0.253532 0.151573
thorax 8.07338 0.00362747 1.60775
lowerneck -3.35742 9.00714 -4.78432
upperneck -6.21549 12.1002 1.65855
head -1.80642 6.081 1.20213
rclavicle 1.42131e-014 -2.22639e-014
rhumerus -32.6033 -25.1248 -75.9355
rradius 23.6744
rwrist 35.2548
rhand 0.169327 -6.1622
rfingers 7.12502
rthumb 25.7525 -34.4396
lclavicle 1.42131e-014 -2.22639e-014
lhumerus -23.7428 8.11244 88.7338
lradius 17.0121
lwrist -33.5186
lhand -12.378 7.63118
lfingers 7.12502
lthumb 13.6927 37.1607
rfemur -23.3977 -11.6173 21.9181
rtibia 23.8313
rfoot -19.2529 -2.24286
rtoes 21.8121
lfemur 0.990961 -10.3669 -9.21924
ltibia 15.0374
lfoot 31.5553 -11.0113
ltoes 17.2855
484
root -5.69068 16.8404 -12.0144 -161.999 -72.3871 -187.101
lowerback -11.1822 -0.0444602 -2.32897
upperback 1.69327 0.258011 0.0903689
thorax 8.07961 0.014196 1.45634
lowerneck -3.45701 9.00296 -4.73905
upperneck -6.09124 12.0918 1.49001
head -1.73323 6.07877 1.1512
rclavicle -4.97956e-014 -1.13307e-014
rhumerus -32.5354 -25.0111 -76.0465
rradius 23.6629
rwrist 35.2957
rhand 0.0872967 -6.02863
rfingers 7.12502
rthumb 25.674 -34.3173
lclavicle -4.97956e-014 -1.13307e-014
lhumerus -23.8098 8.46555 88.3107
lradius 16.9293
lwrist -33.4589
lhand -12.3441 7.57298
lfingers 7.12502
lthumb 13.7254 37.1003
rfemur -23.2619 -11.9495 21.9454
rtibia 23.7936
rfoot -19.3329 -2.24624
rtoes 21.8814
lfemur 0.898775 -10.484 -9.12512
ltibia 15.1659
lfoot 31.4785 -10.9168
ltoes 17.4827
485
root -5.69355 16.8398 -12.014 -161.772 -72.754 -187.318
lowerback -11.1825 0.00218214 -2.35689
upperback 1.7159 0.328316 0.0421645
thorax 8.10132 0.0478183 1.4336
lowerneck -3.60217 9.00831 -4.71351
upperneck -5.96454 12.0997 1.35565
head -1.65625 6.08436 1.11617
rclavicle 4.44781e-014 -5.96354e-015
rhumerus -32.43 -24.9089 -76.1318
rradius 23.6392
rwrist 35.0634
rhand 0.0216498 -6.00108
rfingers 7.12502
rthumb 25.6111 -34.2989
lclavicle 4.44781e-014 -5.96354e-015
lhumerus -23.8317 9.24198 87.811
lradius 16.7404
lwrist -33.9494
lhand -12.2713 7.32814
lfingers 7.12502
lthumb 13.7955 36.8507
rfemur -23.1989 -11.8824 21.8732
rtibia 23.7707
rfoot -19.4632 -2.59284
rtoes 22.3349
lfemur 0.751252 -10.3701 -9.05544
ltibia 15.2246
lfoot 31.5196 -11.3592
ltoes 16.8554
486
root -5.6941 16.8388 -12.0216 -161.759 -73.0512 -187.228
lowerback -11.3107 -0.0224813 -2.51634
upperback 1.78617 0.314519 0.149046
thorax 8.25071 0.0283586 1.63588
lowerneck -3.83921 9.10291 -4.94878
upperneck -5.98299 12.2363 1.28961
head -1.63842 6.15823 1.1419
rclavicle 3.09607e-014 -8.94531e-015
rhumerus -32.1222 -24.5925 -76.2377
rradius 23.6061
rwrist 35.1347
rhand 0.090568 -5.97564
rfingers 7.12502
rthumb 25.6771 -34.2639
lclavicle 3.09607e-014 -8.94531e-015
lhumerus -22.9745 11.7094 87.2029
lradius 15.6446
lwrist -35.8873
lhand -12.383 7.07691
lfingers 7.12502
lthumb 13.6879 36.6068
rfemur -23.2305 -11.577 21.916
rtibia 23.7316
rfoot -19.5915 -3.11122
rtoes 22.5295
lfemur 0.519845 -9.99305 -8.8324
ltibia 15.2572
lfoot 31.7588 -11.6262
ltoes 16.9276
487
root -5.69598 16.8397 -12.0274 -161.823 -73.3865 -187.174
lowerback -11.3075 0.011742 -2.59787
upperback 1.83323 0.370426 0.177615
thorax 8.29672 0.0498491 1.7227
lowerneck -3.87179 9.15745 -5.15154
upperneck -6.10165 12.3182 1.38429
head -1.69554 6.20272 1.20005
rclavicle -1.52567e-014 -1.33186e-014
rhumerus -32.0581 -24.3249 -76.3511
rradius 23.6537
rwrist 35.1963
rhand 0.220448 -5.91551
rfingers 7.12502
rthumb 25.8015 -34.1858
lclavicle -1.52567e-014 -1.33186e-014
lhumerus -22.8479 13.3357 86.6229
lradius 15.3048
lwrist -37.1755
lhand -12.49 6.98042
lfingers 7.12502
lthumb 13.5848 36.5172
rfemur -23.1079 -11.5206 21.9732
rtibia 23.6512
rfoot -19.6842 -3.48533
rtoes 22.2577
lfemur 0.413702 -9.74575 -8.62912
ltibia 15.3228
lfoot 31.9385 -11.5255
ltoes 17.802
488
root -5.69499 16.8426 -12.0295 -161.783 -73.8453 -187.228
lowerback -11.1711 0.248943 -2.42591
upperback 1.74051 0.67869 -0.103856
thorax 8.1074 0.218143 1.38024
lowerneck -3.50507 9.02948 -4.58414
upperneck -6.21499 12.1211 1.34409
head -1.74478 6.09341 1.08035
rclavicle 1.27968e-014 7.55382e-015
rhumerus -32.5789 -25.0285 -76.363
rradius 23.8269
rwrist 35.2086
rhand 0.386441 -5.88295
rfingers 7.12502
rthumb 25.9605 -34.13
lclavicle 1.27968e-014 7.55382e-015
lhumerus -23.2177 12.949 86.0769
lradius 15.4816
lwrist -37.4049
lhand -12.4396 7.10346
lfingers 7.12502
lthumb 13.6334 36.637
rfemur -22.9555 -11.49 21.9959
rtibia 23.5378
rfoot -19.8065 -3.89884
rtoes 22.3836
lfemur 0.268094 -9.80469 -8.41912
ltibia 15.4371
lfoot 32.0053 -11.4224
ltoes 18.8275
489
root -5.69322 16.8445 -12.031 -162.003 -74.2927 -186.988
lowerback -11.0471 0.413131 -2.23401
upperback 1.67029 0.880158 -0.291564
thorax 7.95741 0.331871 1.10672
lowerneck -3.26462 8.94965 -4.02904
upperneck -6.26571 11.9902 1.17294
head -1.74721 6.01868 0.929834
rclavicle 9.7566e-014 -2.127e-014
rhumerus -32.8884 -25.619 -76.393
rradius 23.8992
rwrist 35.4393
rhand 0.362252 -5.86545
rfingers 7.12502
rthumb 25.9373 -34.1159
lclavicle 9.7566e-014 -2.127e-014
lhumerus -23.5495 12.5074 85.6362
lradius 15.6707
lwrist -37.4122
lhand -12.3246 7.09957
lfingers 7.12502
lthumb 13.7442 36.6256
rfemur -22.8358 -11.2829 22.077
rtibia 23.4234
rfoot -19.9578 -4.37582
rtoes 22.8054
lfemur 0.0891142 -9.96803 -8.12736
ltibia 15.5505
lfoot 32.0455 -11.0726
ltoes 20.2145
490
root -5.69438 16.844 -12.0336 -161.993 -74.6298 -186.999
lowerback -11.0188 0.423657 -2.32514
upperback 1.69972 0.904807 -0.265752
thorax 7.97037 0.338782 1.18963
lowerneck -3.20099 8.97162 -4.07615
upperneck -6.40364 12.017 1.15981
head -1.8059 6.0332 0.925873
rclavicle -4.64162e-014 1.2921e-015
rhumerus -32.672 -25.173 -76.5775
rradius 23.8579
rwrist 35.3237
rhand 0.119693 -5.93382
rfingers 7.12502
rthumb 25.705 -34.2181
lclavicle -4.64162e-014 1.2921e-015
lhumerus -23.7684 12.4656 85.4705
lradius 15.8404
lwrist -37.0868
lhand -12.3044 7.1237
lfingers 7.12502
lthumb 13.7636 36.6484
rfemur -22.7436 -11.3226 22.1294
rtibia 23.333
rfoot -19.981 -4.64977
rtoes 22.6062
lfemur -0.0271327 -10.0282 -7.9797
ltibia 15.6204
lfoot 32.0509 -10.8357
ltoes 20.892
491
root -5.69565 16.8451 -12.0374 -161.657 -74.9696 -187.297
lowerback -11.0145 0.395937 -2.56669
upperback 1.68763 0.89459 -0.183261
thorax 7.95089 0.321131 1.41134
lowerneck -3.12814 9.0081 -4.37461
upperneck -6.49798 12.0741 1.28457
head -1.88063 6.06689 1.00371
rclavicle 3.13086e-015 -3.30976e-014
rhumerus -32.4208 -24.5236 -76.6592
rradius 23.8125
rwrist 34.8729
rhand -0.0718932 -5.967
rfingers 7.12502
rthumb 25.5215 -34.2776
lclavicle 3.13086e-015 -3.30976e-014
lhumerus -24.0697 12.3587 85.4724
lradius 16.1253
lwrist -36.5893
lhand -12.206 7.12384
lfingers 7.12502
lthumb 13.8585 36.6421
rfemur -22.7246 -11.3998 22.1116
rtibia 23.2732
rfoot -20.0196 -4.88393
rtoes 22.6102
lfemur -0.190915 -9.95391 -7.90809
ltibia 15.6351
lfoot 32.1242 -11.1246
ltoes 20.4903
492
root -5.6956 16.8505 -12.0389 -161.194 -75.3123 -187.743
lowerback -10.7887 0.348013 -2.80878
upperback 1.54709 0.847477 -0.107019
thorax 7.66816 0.291106 1.6163
lowerneck -3.01649 9.07563 -4.6857
upperneck -6.41362 12.1748 1.42537
head -1.90788 6.12285 1.09062
rclavicle 2.66868e-014 1.05356e-014
rhumerus -32.4793 -24.0694 -76.5839
rradius 23.7925
rwrist 34.68
rhand -0.26331 -5.92832
rfingers 7.12502
rthumb 25.3381 -34.2651
lclavicle 2.66868e-014 1.05356e-014
lhumerus -24.6558 13.1084 85.1777
lradius 16.4677
lwrist -37.0046
lhand -12.0478 6.83791
lfingers 7.12502
lthumb 14.0109 36.3457
rfemur -22.6954 -11.3794 22.0208
rtibia 23.2361
rfoot -20.1383 -5.20119
rtoes 22.6948
lfemur -0.347961 -9.95698 -7.88114
ltibia 15.6167
lfoot 32.2035 -11.3986
ltoes 20.0989
493
root -5.69593 16.8588 -12.0394 -160.247 -75.5959 -188.743
lowerback -10.696 0.321645 -3.09174
upperback 1.5945 0.849414 -0.125617
thorax 7.66292 0.279733 1.75555
lowerneck -3.16263 9.11287 -4.99338
upperneck -6.37696 12.2373 1.47047
head -1.89827 6.16087 1.16003
rclavicle -2.86995e-014 -3.08116e-015
rhumerus -32.25 -23.7336 -76.6789
rradius 23.7682
rwrist 34.6663
rhand -0.0164673 -5.95541
rfingers 7.12502
rthumb 25.5746 -34.2584
lclavicle -2.86995e-014 -3.08116e-015
lhumerus -24.7138 12.9846 85.1557
lradius 16.4121
lwrist -36.5451
lhand -12.3496 6.70381
lfingers 7.12502
lthumb 13.7201 36.2315
rfemur -22.6305 -11.5265 21.7886
rtibia 23.2022
rfoot -20.1958 -5.40894
rtoes 22.4954
lfemur -0.409185 -10.1595 -8.01966
ltibia 15.5785
lfoot 32.2659 -11.1828
ltoes 20.3748
